<?xml version="1.0" encoding="UTF-8" standalone="no"?>
<!DOCTYPE svg PUBLIC "-//W3C//DTD SVG 1.1//EN"
 "http://www.w3.org/Graphics/SVG/1.1/DTD/svg11.dtd">
<!-- Generated by graphviz version 2.43.0 (0)
 -->
<!-- Title: D Pages: 1 -->
<svg width="265pt" height="451pt"
 viewBox="0.00 0.00 265.00 451.00" xmlns="http://www.w3.org/2000/svg" xmlns:xlink="http://www.w3.org/1999/xlink">
<g id="graph0" class="graph" transform="scale(1 1) rotate(0) translate(4 447)">
<title>D</title>
<polygon fill="white" stroke="transparent" points="-4,4 -4,-447 261,-447 261,4 -4,4"/>
<!-- task2 -->
<g id="node1" class="node">
<title>task2</title>
<ellipse fill="lightgrey" stroke="black" cx="230" cy="-254" rx="18" ry="18"/>
<ellipse fill="none" stroke="black" cx="230" cy="-254" rx="22" ry="22"/>
<text text-anchor="middle" x="186" y="-279.8" font-family="Times,serif" font-size="14.00">task2 </text>
</g>
<!-- ExclusiveGateway_0y2qzph -->
<g id="node4" class="node">
<title>ExclusiveGateway_0y2qzph</title>
<polygon fill="none" stroke="black" points="230,-196 203,-178 230,-160 257,-178 230,-196"/>
<text text-anchor="middle" x="101.5" y="-199.8" font-family="Times,serif" font-size="14.00">ExclusiveGateway_0y2qzph </text>
</g>
<!-- task2&#45;&gt;ExclusiveGateway_0y2qzph -->
<g id="edge1" class="edge">
<title>task2&#45;&gt;ExclusiveGateway_0y2qzph</title>
<path fill="none" stroke="black" d="M223.91,-232.78C223.13,-223.58 223.04,-212.62 223.63,-203"/>
<polygon fill="black" stroke="black" points="227.14,-203.16 224.59,-192.88 220.17,-202.5 227.14,-203.16"/>
</g>
<!-- task3 -->
<g id="node2" class="node">
<title>task3</title>
<ellipse fill="lightgrey" stroke="black" cx="230" cy="-102" rx="18" ry="18"/>
<ellipse fill="none" stroke="black" cx="230" cy="-102" rx="22" ry="22"/>
<text text-anchor="middle" x="186" y="-127.8" font-family="Times,serif" font-size="14.00">task3 </text>
</g>
<!-- End -->
<g id="node5" class="node">
<title>End</title>
<ellipse fill="lightgrey" stroke="black" cx="230" cy="-22" rx="18" ry="18"/>
<ellipse fill="none" stroke="black" cx="230" cy="-22" rx="22" ry="22"/>
<text text-anchor="middle" x="191" y="-47.8" font-family="Times,serif" font-size="14.00">End </text>
</g>
<!-- task3&#45;&gt;End -->
<g id="edge2" class="edge">
<title>task3&#45;&gt;End</title>
<path fill="none" stroke="black" d="M230,-79.69C230,-71.8 230,-62.68 230,-54.1"/>
<polygon fill="black" stroke="black" points="233.5,-54.02 230,-44.02 226.5,-54.02 233.5,-54.02"/>
</g>
<!-- start -->
<g id="node3" class="node">
<title>start</title>
<ellipse fill="none" stroke="black" cx="230" cy="-410" rx="18" ry="18"/>
<text text-anchor="middle" x="192" y="-431.8" font-family="Times,serif" font-size="14.00">start </text>
</g>
<!-- task1 -->
<g id="node6" class="node">
<title>task1</title>
<ellipse fill="lightgrey" stroke="black" cx="230" cy="-334" rx="18" ry="18"/>
<ellipse fill="none" stroke="black" cx="230" cy="-334" rx="22" ry="22"/>
<text text-anchor="middle" x="186" y="-359.8" font-family="Times,serif" font-size="14.00">task1 </text>
</g>
<!-- start&#45;&gt;task1 -->
<g id="edge3" class="edge">
<title>start&#45;&gt;task1</title>
<path fill="none" stroke="black" d="M230,-391.84C230,-384.16 230,-374.88 230,-366.05"/>
<polygon fill="black" stroke="black" points="233.5,-366.03 230,-356.03 226.5,-366.03 233.5,-366.03"/>
</g>
<!-- ExclusiveGateway_0y2qzph&#45;&gt;task2 -->
<g id="edge4" class="edge">
<title>ExclusiveGateway_0y2qzph&#45;&gt;task2</title>
<path fill="none" stroke="black" d="M235.41,-192.88C236.55,-201.31 236.96,-212.41 236.65,-222.78"/>
<polygon fill="black" stroke="black" points="233.15,-222.6 236.09,-232.78 240.14,-222.99 233.15,-222.6"/>
</g>
<!-- ExclusiveGateway_0y2qzph&#45;&gt;task3 -->
<g id="edge5" class="edge">
<title>ExclusiveGateway_0y2qzph&#45;&gt;task3</title>
<path fill="none" stroke="black" d="M230,-159.84C230,-152.16 230,-142.88 230,-134.05"/>
<polygon fill="black" stroke="black" points="233.5,-134.03 230,-124.03 226.5,-134.03 233.5,-134.03"/>
</g>
<!-- task1&#45;&gt;task2 -->
<g id="edge6" class="edge">
<title>task1&#45;&gt;task2</title>
<path fill="none" stroke="black" d="M230,-311.69C230,-303.8 230,-294.68 230,-286.1"/>
<polygon fill="black" stroke="black" points="233.5,-286.02 230,-276.02 226.5,-286.02 233.5,-286.02"/>
</g>
</g>
</svg>
