<?xml version="1.0" encoding="UTF-8" standalone="no"?>
<!DOCTYPE svg PUBLIC "-//W3C//DTD SVG 1.1//EN"
 "http://www.w3.org/Graphics/SVG/1.1/DTD/svg11.dtd">
<!-- Generated by graphviz version 2.43.0 (0)
 -->
<!-- Title: D Pages: 1 -->
<svg width="246pt" height="412pt"
 viewBox="0.00 0.00 246.00 412.00" xmlns="http://www.w3.org/2000/svg" xmlns:xlink="http://www.w3.org/1999/xlink">
<g id="graph0" class="graph" transform="scale(1 1) rotate(0) translate(4 408)">
<title>D</title>
<polygon fill="white" stroke="transparent" points="-4,4 -4,-408 242,-408 242,4 -4,4"/>
<!-- t1 -->
<g id="node1" class="node">
<title>t1</title>
<polygon fill="lightgrey" stroke="black" points="202,-317 148,-317 148,-310 202,-310 202,-317"/>
<text text-anchor="middle" x="138" y="-320.8" font-family="Times,serif" font-size="14.00">t1 </text>
</g>
<!-- t2 -->
<g id="node2" class="node">
<title>t2</title>
<polygon fill="lightgrey" stroke="black" points="202,-274 148,-274 148,-267 202,-267 202,-274"/>
<text text-anchor="middle" x="138" y="-277.8" font-family="Times,serif" font-size="14.00">t2 </text>
</g>
<!-- t1&#45;&gt;t2 -->
<g id="edge1" class="edge">
<title>t1&#45;&gt;t2</title>
<path fill="none" stroke="black" d="M175,-309.81C175,-304.71 175,-293.36 175,-284.33"/>
<polygon fill="black" stroke="black" points="178.5,-284.25 175,-274.25 171.5,-284.25 178.5,-284.25"/>
</g>
<!-- Gateway_09f8oaj -->
<g id="node7" class="node">
<title>Gateway_09f8oaj</title>
<polygon fill="none" stroke="black" points="175,-231 148,-213 175,-195 202,-213 175,-231"/>
<text text-anchor="middle" x="84.5" y="-234.8" font-family="Times,serif" font-size="14.00">Gateway_09f8oaj </text>
</g>
<!-- t2&#45;&gt;Gateway_09f8oaj -->
<g id="edge2" class="edge">
<title>t2&#45;&gt;Gateway_09f8oaj</title>
<path fill="none" stroke="black" d="M175,-266.82C175,-262.05 175,-251.59 175,-241.23"/>
<polygon fill="black" stroke="black" points="178.5,-241.11 175,-231.11 171.5,-241.11 178.5,-241.11"/>
</g>
<!-- t4 -->
<g id="node3" class="node">
<title>t4</title>
<polygon fill="lightgrey" stroke="black" points="166,-159 112,-159 112,-152 166,-152 166,-159"/>
<text text-anchor="middle" x="102" y="-162.8" font-family="Times,serif" font-size="14.00">t4 </text>
</g>
<!-- Gateway_0q4frag -->
<g id="node4" class="node">
<title>Gateway_0q4frag</title>
<polygon fill="none" stroke="black" points="175,-116 148,-98 175,-80 202,-98 175,-116"/>
<text text-anchor="middle" x="83" y="-119.8" font-family="Times,serif" font-size="14.00">Gateway_0q4frag </text>
</g>
<!-- t4&#45;&gt;Gateway_0q4frag -->
<g id="edge3" class="edge">
<title>t4&#45;&gt;Gateway_0q4frag</title>
<path fill="none" stroke="black" d="M140.74,-151.82C144.45,-146.09 153.48,-132.18 161.33,-120.07"/>
<polygon fill="black" stroke="black" points="164.5,-121.62 167,-111.33 158.62,-117.82 164.5,-121.62"/>
</g>
<!-- Event_0na8fir -->
<g id="node5" class="node">
<title>Event_0na8fir</title>
<ellipse fill="none" stroke="black" cx="175" cy="-22" rx="18" ry="18"/>
<ellipse fill="none" stroke="black" cx="175" cy="-22" rx="22" ry="22"/>
<text text-anchor="middle" x="100.5" y="-47.8" font-family="Times,serif" font-size="14.00">Event_0na8fir </text>
</g>
<!-- Gateway_0q4frag&#45;&gt;Event_0na8fir -->
<g id="edge4" class="edge">
<title>Gateway_0q4frag&#45;&gt;Event_0na8fir</title>
<path fill="none" stroke="black" d="M175,-79.84C175,-72.16 175,-62.88 175,-54.05"/>
<polygon fill="black" stroke="black" points="178.5,-54.03 175,-44.03 171.5,-54.03 178.5,-54.03"/>
</g>
<!-- StartEvent_0ueh1m2 -->
<g id="node6" class="node">
<title>StartEvent_0ueh1m2</title>
<ellipse fill="none" stroke="black" cx="175" cy="-371" rx="18" ry="18"/>
<text text-anchor="middle" x="78.5" y="-392.8" font-family="Times,serif" font-size="14.00">StartEvent_0ueh1m2 </text>
</g>
<!-- StartEvent_0ueh1m2&#45;&gt;t1 -->
<g id="edge5" class="edge">
<title>StartEvent_0ueh1m2&#45;&gt;t1</title>
<path fill="none" stroke="black" d="M175,-352.74C175,-344.59 175,-335.02 175,-327.49"/>
<polygon fill="black" stroke="black" points="178.5,-327.36 175,-317.36 171.5,-327.36 178.5,-327.36"/>
</g>
<!-- Gateway_09f8oaj&#45;&gt;t4 -->
<g id="edge6" class="edge">
<title>Gateway_09f8oaj&#45;&gt;t4</title>
<path fill="none" stroke="black" d="M167.19,-199.96C160.94,-190.32 152.24,-176.92 146.17,-167.55"/>
<polygon fill="black" stroke="black" points="149.07,-165.6 140.69,-159.11 143.2,-169.41 149.07,-165.6"/>
</g>
<!-- t3 -->
<g id="node8" class="node">
<title>t3</title>
<polygon fill="lightgrey" stroke="black" points="238,-159 184,-159 184,-152 238,-152 238,-159"/>
<text text-anchor="middle" x="174" y="-162.8" font-family="Times,serif" font-size="14.00">t3 </text>
</g>
<!-- Gateway_09f8oaj&#45;&gt;t3 -->
<g id="edge7" class="edge">
<title>Gateway_09f8oaj&#45;&gt;t3</title>
<path fill="none" stroke="black" d="M182.81,-199.96C189.06,-190.32 197.76,-176.92 203.83,-167.55"/>
<polygon fill="black" stroke="black" points="206.8,-169.41 209.31,-159.11 200.93,-165.6 206.8,-169.41"/>
</g>
<!-- t3&#45;&gt;Gateway_0q4frag -->
<g id="edge8" class="edge">
<title>t3&#45;&gt;Gateway_0q4frag</title>
<path fill="none" stroke="black" d="M209.26,-151.82C205.55,-146.09 196.52,-132.18 188.67,-120.07"/>
<polygon fill="black" stroke="black" points="191.38,-117.82 183,-111.33 185.5,-121.62 191.38,-117.82"/>
</g>
</g>
</svg>
