<?xml version="1.0" encoding="UTF-8" standalone="no"?>
<!DOCTYPE svg PUBLIC "-//W3C//DTD SVG 1.1//EN"
 "http://www.w3.org/Graphics/SVG/1.1/DTD/svg11.dtd">
<!-- Generated by graphviz version 2.43.0 (0)
 -->
<!-- Title: M Pages: 1 -->
<svg width="272pt" height="605pt"
 viewBox="0.00 0.00 272.00 605.00" xmlns="http://www.w3.org/2000/svg" xmlns:xlink="http://www.w3.org/1999/xlink">
<g id="graph0" class="graph" transform="scale(1 1) rotate(0) translate(4 601)">
<title>M</title>
<polygon fill="white" stroke="transparent" points="-4,4 -4,-601 268,-601 268,4 -4,4"/>
<!-- evolve -->
<g id="node1" class="node">
<title>evolve</title>
<polygon fill="none" stroke="black" points="246,-509 184,-509 184,-486 246,-486 246,-509"/>
<text text-anchor="middle" x="215" y="-493.8" font-family="Times,serif" font-size="14.00">evolve</text>
</g>
<!-- eidknown -->
<g id="node7" class="node">
<title>eidknown</title>
<ellipse fill="none" stroke="black" cx="152" cy="-431" rx="27" ry="18"/>
<text text-anchor="middle" x="90.5" y="-452.8" font-family="Times,serif" font-size="14.00">eidknown</text>
</g>
<!-- evolve&#45;&gt;eidknown -->
<g id="edge3" class="edge">
<title>evolve&#45;&gt;eidknown</title>
<path fill="none" stroke="black" d="M204.6,-485.85C196.16,-477.21 183.99,-464.75 173.48,-453.99"/>
<polygon fill="black" stroke="black" points="175.68,-451.24 166.19,-446.53 170.68,-456.13 175.68,-451.24"/>
</g>
<!-- P4 -->
<g id="node10" class="node">
<title>P4</title>
<ellipse fill="none" stroke="black" cx="152" cy="-165" rx="27" ry="18"/>
<text text-anchor="middle" x="115.5" y="-186.8" font-family="Times,serif" font-size="14.00">P4</text>
</g>
<!-- evolve&#45;&gt;P4 -->
<g id="edge11" class="edge">
<title>evolve&#45;&gt;P4</title>
<path fill="none" stroke="black" d="M213.91,-485.56C212.72,-472.74 211,-450.85 211,-432 211,-432 211,-432 211,-230.5 211,-210.65 195.6,-194.25 180.54,-182.95"/>
<polygon fill="black" stroke="black" points="182.51,-180.06 172.3,-177.21 178.51,-185.8 182.51,-180.06"/>
</g>
<!-- evolveo -->
<g id="node2" class="node">
<title>evolveo</title>
<polygon fill="none" stroke="black" points="183,-243 121,-243 121,-220 183,-220 183,-243"/>
<text text-anchor="middle" x="152" y="-227.8" font-family="Times,serif" font-size="14.00">evolve</text>
</g>
<!-- P2 -->
<g id="node8" class="node">
<title>P2</title>
<ellipse fill="none" stroke="black" cx="152" cy="-298" rx="27" ry="18"/>
<text text-anchor="middle" x="115.5" y="-319.8" font-family="Times,serif" font-size="14.00">P2</text>
</g>
<!-- evolveo&#45;&gt;P2 -->
<g id="edge8" class="edge">
<title>evolveo&#45;&gt;P2</title>
<path fill="none" stroke="black" d="M157.21,-243.38C158.48,-250.74 158.96,-260.79 158.66,-270.21"/>
<polygon fill="black" stroke="black" points="155.16,-270.18 157.99,-280.39 162.14,-270.64 155.16,-270.18"/>
</g>
<!-- P3 -->
<g id="node9" class="node">
<title>P3</title>
<ellipse fill="none" stroke="black" cx="237" cy="-165" rx="27" ry="18"/>
<text text-anchor="middle" x="200.5" y="-186.8" font-family="Times,serif" font-size="14.00">P3</text>
</g>
<!-- evolveo&#45;&gt;P3 -->
<g id="edge9" class="edge">
<title>evolveo&#45;&gt;P3</title>
<path fill="none" stroke="black" d="M166.04,-219.85C178.33,-210.52 196.52,-196.72 211.4,-185.43"/>
<polygon fill="black" stroke="black" points="213.86,-187.95 219.71,-179.12 209.63,-182.38 213.86,-187.95"/>
</g>
<!-- evolveo&#45;&gt;P4 -->
<g id="edge12" class="edge">
<title>evolveo&#45;&gt;P4</title>
<path fill="none" stroke="black" d="M152,-219.85C152,-212.62 152,-202.72 152,-193.37"/>
<polygon fill="black" stroke="black" points="155.5,-193.23 152,-183.23 148.5,-193.23 155.5,-193.23"/>
</g>
<!-- start -->
<g id="node3" class="node">
<title>start</title>
<polygon fill="none" stroke="black" points="165.5,-509 114.5,-509 114.5,-486 165.5,-486 165.5,-509"/>
<text text-anchor="middle" x="140" y="-493.8" font-family="Times,serif" font-size="14.00">start</text>
</g>
<!-- start&#45;&gt;eidknown -->
<g id="edge4" class="edge">
<title>start&#45;&gt;eidknown</title>
<path fill="none" stroke="black" d="M141.98,-485.85C143.35,-478.49 145.24,-468.36 147,-458.87"/>
<polygon fill="black" stroke="black" points="150.45,-459.45 148.84,-448.98 143.57,-458.17 150.45,-459.45"/>
</g>
<!-- pub -->
<g id="node4" class="node">
<title>pub</title>
<polygon fill="none" stroke="black" points="174,-376 130,-376 130,-353 174,-353 174,-376"/>
<text text-anchor="middle" x="152" y="-360.8" font-family="Times,serif" font-size="14.00">pub</text>
</g>
<!-- pub&#45;&gt;P2 -->
<g id="edge6" class="edge">
<title>pub&#45;&gt;P2</title>
<path fill="none" stroke="black" d="M152,-352.85C152,-345.62 152,-335.72 152,-326.37"/>
<polygon fill="black" stroke="black" points="155.5,-326.23 152,-316.23 148.5,-326.23 155.5,-326.23"/>
</g>
<!-- T5 -->
<g id="node5" class="node">
<title>T5</title>
<polygon fill="none" stroke="black" points="130.5,-96 87.5,-96 87.5,-73 130.5,-73 130.5,-96"/>
<text text-anchor="middle" x="109" y="-80.8" font-family="Times,serif" font-size="14.00">T5</text>
</g>
<!-- rendezvous -->
<g id="node11" class="node">
<title>rendezvous</title>
<ellipse fill="none" stroke="black" cx="109" cy="-18" rx="27" ry="18"/>
<text text-anchor="middle" x="41" y="-39.8" font-family="Times,serif" font-size="14.00">rendezvous</text>
</g>
<!-- T5&#45;&gt;rendezvous -->
<g id="edge14" class="edge">
<title>T5&#45;&gt;rendezvous</title>
<path fill="none" stroke="black" d="M109,-72.85C109,-65.62 109,-55.72 109,-46.37"/>
<polygon fill="black" stroke="black" points="112.5,-46.23 109,-36.23 105.5,-46.23 112.5,-46.23"/>
</g>
<!-- P0 -->
<g id="node6" class="node">
<title>P0</title>
<ellipse fill="none" stroke="black" cx="177" cy="-564" rx="27" ry="18"/>
<text text-anchor="middle" x="140.5" y="-585.8" font-family="Times,serif" font-size="14.00">P0</text>
</g>
<!-- P0&#45;&gt;evolve -->
<g id="edge1" class="edge">
<title>P0&#45;&gt;evolve</title>
<path fill="none" stroke="black" d="M186.39,-547.06C191.55,-538.31 197.98,-527.38 203.44,-518.12"/>
<polygon fill="black" stroke="black" points="206.63,-519.61 208.69,-509.22 200.59,-516.06 206.63,-519.61"/>
</g>
<!-- P0&#45;&gt;start -->
<g id="edge2" class="edge">
<title>P0&#45;&gt;start</title>
<path fill="none" stroke="black" d="M167.85,-547.06C162.83,-538.31 156.57,-527.38 151.25,-518.12"/>
<polygon fill="black" stroke="black" points="154.16,-516.15 146.15,-509.22 148.09,-519.63 154.16,-516.15"/>
</g>
<!-- eidknown&#45;&gt;pub -->
<g id="edge5" class="edge">
<title>eidknown&#45;&gt;pub</title>
<path fill="none" stroke="black" d="M152,-412.72C152,-404.62 152,-394.91 152,-386.4"/>
<polygon fill="black" stroke="black" points="155.5,-386.16 152,-376.16 148.5,-386.16 155.5,-386.16"/>
</g>
<!-- P2&#45;&gt;evolveo -->
<g id="edge7" class="edge">
<title>P2&#45;&gt;evolveo</title>
<path fill="none" stroke="black" d="M146.01,-280.39C145.15,-272.2 145.02,-262.24 145.63,-253.52"/>
<polygon fill="black" stroke="black" points="149.13,-253.72 146.79,-243.38 142.17,-252.92 149.13,-253.72"/>
</g>
<!-- P2&#45;&gt;T5 -->
<g id="edge15" class="edge">
<title>P2&#45;&gt;T5</title>
<path fill="none" stroke="black" d="M137.24,-282.43C128.09,-272.32 117.12,-258.02 112,-243 96.06,-196.2 101.14,-136.94 105.5,-106.17"/>
<polygon fill="black" stroke="black" points="108.97,-106.62 107.03,-96.2 102.05,-105.55 108.97,-106.62"/>
</g>
<!-- P3&#45;&gt;evolve -->
<g id="edge10" class="edge">
<title>P3&#45;&gt;evolve</title>
<path fill="none" stroke="black" d="M241.88,-182.82C245.2,-195.74 249,-214.1 249,-230.5 249,-432 249,-432 249,-432 249,-448.91 239.74,-465.73 230.89,-477.96"/>
<polygon fill="black" stroke="black" points="228.03,-475.94 224.65,-485.98 233.55,-480.23 228.03,-475.94"/>
</g>
<!-- P4&#45;&gt;T5 -->
<g id="edge13" class="edge">
<title>P4&#45;&gt;T5</title>
<path fill="none" stroke="black" d="M143.09,-147.73C136.35,-135.42 127.05,-118.46 119.87,-105.35"/>
<polygon fill="black" stroke="black" points="122.74,-103.3 114.87,-96.21 116.6,-106.67 122.74,-103.3"/>
<text text-anchor="middle" x="137" y="-117.8" font-family="Times,serif" font-size="14.00">5</text>
</g>
</g>
</svg>
